<ttFont>
          <CharString index="0">
            -69 737 -69 callgsubr
            -154 -96 callsubr
            154 -77 callgsubr
            -154 -80 callsubr
            154 -66 callsubr
            return
          </CharString>
          <CharString index="1">
            -39 callgsubr
            -21 -21 -24 -25 21 -49 callsubr
            163 hmoveto
            -23 callsubr
            -25 -76 callgsubr
            25 -53 callsubr
            endchar
          </CharString>
          <CharString index="2">
            -60 711 -46 callgsubr
            -450 -275 -102 callsubr
            return
          </CharString>
          <CharString index="3">
            -77 698 -73 callgsubr
            -103 callsubr
            return
          </CharString>
          <CharString index="4">
            -53 callgsubr
            41 34 20 callsubr
            -275 -400 vlineto
            -41 -34 34 -28 callgsubr
            hvcurveto
            -31 callgsubr
            hlineto
            -97 -78 -78 -97 -19 callsubr
            hvcurveto
            return
          </CharString>
          <CharString index="5">
            -82 callsubr
            -275 vlineto
            -75 callgsubr
            return
          </CharString>
          <CharString index="6">
            -21 callsubr
            -84 -71 callsubr
            -69 callsubr
            hvcurveto
            451 100 -451 -98 callsubr
            return
          </CharString>
          <CharString index="7">
            rmoveto
            -66 hlineto
            -17 -5 -16 -35 -56 hhcurveto
            -56 -15 35 17 -6 hvcurveto
            -66 hlineto
            -35 2 20 -99 121 hhcurveto
            121 20 99 35 2 hvcurveto
            endchar
          </CharString>
          <CharString index="8">
            -101 callsubr
            451 hlineto
            return
          </CharString>
          <CharString index="9">
            -81 callgsubr
            -194 128 -156 -1 callgsubr
            return
          </CharString>
          <CharString index="10">
            rmoveto
            -63 hlineto
            -10 -3 -32 -28 vhcurveto
            -33 -17 42 -45 hhcurveto
            -47 -42 -40 -80 hvcurveto
            62 hlineto
            9 1 3 33 28 31 13 -42 51 hhcurveto
            49 40 30 90 hvcurveto
            endchar
          </CharString>
          <CharString index="11">
            -74 callsubr
            -68 callsubr
            hvcurveto
            return
          </CharString>
          <CharString index="12">
            -105 712 375 rmoveto
            97 -78 78 -97 vhcurveto
            -227 -93 callgsubr
            return
          </CharString>
          <CharString index="13">
            193 -128 -8 callgsubr
            vhcurveto
            -233 -98 callsubr
            19 callsubr
            return
          </CharString>
          <CharString index="14">
            35 callsubr
            -37 callsubr
            -375 -93 callgsubr
            225 100 -225 -79 callgsubr
            -37 callgsubr
            275 -475 hlineto
            -70 callgsubr
            1 callgsubr
            96 79 78 97 hvcurveto
            return
          </CharString>
          <CharString index="15">
            -21 callgsubr
            -1 -122 -123 -151 vvcurveto
            -151 122 return
          </CharString>
          <CharString index="16">
            39 817 15 callgsubr
            -524 -100 424 -200 -351 -99 callsubr
            return
          </CharString>
          <CharString index="17">
            -72 callsubr
            724 -62 callgsubr
            return
          </CharString>
          <CharString index="18">
            -166 646 -59 callgsubr
            400 100 -400 hlineto
            -83 -67 -67 -83 -83 67 -67 83 hvcurveto
            275 -77 callsubr
            -425 -100 return
          </CharString>
          <CharString index="19">
            -105 callsubr
            275 -25 hlineto
            -70 callgsubr
            1 callgsubr
            97 78 78 97 hvcurveto
            return
          </CharString>
          <CharString index="20">
            -91 callgsubr
            608 -3 callgsubr
            return
          </CharString>
          <CharString index="21">
            155 -104 155 104 -33 49 -122 -63 -122 63 rlineto
            endchar
          </CharString>
          <CharString index="22">
            -18 callgsubr
            -69 -59 41 59 -28 hvcurveto
            383 -64 callgsubr
            return
          </CharString>
          <CharString index="23">
            44 -34 34 -41 -70 callgsubr
            -38 28 -32 36 -5 vhcurveto
            -8 -32 -12 -20 0 vvcurveto
            64 -1 rlineto
            0 40 60 2 65 vhcurveto
            return
          </CharString>
          <CharString index="24">
            -88 callgsubr
            327 hlineto
            return
          </CharString>
          <CharString index="25">
            -79 callgsubr
            275 -100 return
          </CharString>
          <CharString index="26">
            93 682 203 rmoveto
            119 19 91 103 125 vvcurveto
            -66 callgsubr
            307 hlineto
            210 -200 rlineto
            135 hlineto
            return
          </CharString>
          <CharString index="27">
            5 callsubr
            79 96 -61 callsubr
            hvcurveto
            return
          </CharString>
          <CharString index="28">
            99 184 596 rmoveto
            226 -35 348 -253 -308 vvcurveto
            31 callgsubr
            -56 callgsubr
            hlineto
            return
          </CharString>
          <CharString index="29">
            rlineto
            2 10 12 2 11 hhcurveto
            15 26 -3 -15 -12 -20 -6 -26 -26 -27 7 9 -18 hvcurveto
            -62 vlineto
            -2 18 13 -6 48 hhcurveto
            52 59 17 54 53 -46 11 -28 hvcurveto
            return
          </CharString>
          <CharString index="30">
            hlineto
            41 34 -34 -41 -70 callgsubr
            hvcurveto
            return
          </CharString>
          <CharString index="31">
            -46 39 -39 64 63 40 39 46 46 -36 39 -67 -60 -43 -39 -46 vhcurveto
            69 -57 callsubr
          </CharString>
          <CharString index="32">
            151 -122 124 -151 vhcurveto
            return
          </CharString>
          <CharString index="33">
            -21 callgsubr
            -122 -124 -151 return
          </CharString>
          <CharString index="34">
            705 -46 callsubr
            -11 -14 rlineto
            9 -30 -31 5 -34 21 callgsubr
            -125 52 -109 90 -62 hvcurveto
            -44 -54 rlineto
            119 hlineto
            10 13 rlineto
            -9 30 31 -4 34 hhcurveto
            23 callsubr
            123 -53 109 -88 62 hvcurveto
            45 56 rlineto
            -225 -100 rmoveto
            8 8 -1 -1 8 hvcurveto
            -374 -465 rlineto
            -67 43 -38 81 93 vvcurveto
            -69 callsubr
            vhcurveto
            454 -250 rmoveto
            25 callsubr
            -8 -8 1 -8 hhcurveto
            374 465 rlineto
            66 -43 38 -81 -92 vvcurveto
            return
          </CharString>
          <CharString index="35">
            5 808 -59 callsubr
            -700 return
          </CharString>
          <CharString index="36">
            112 138 return
          </CharString>
          <CharString index="37">
            -51 callsubr
            275 vlineto
            -75 callsubr
            return
          </CharString>
          <CharString index="38">
            138 84 -71 callsubr
            return
          </CharString>
          <CharString index="39">
            -151 122 -123 151 -1 return
          </CharString>
          <CharString index="40">
            hlineto
            151 1 122 123 151 vvcurveto
            return
          </CharString>
          <CharString index="41">
            hlineto
            96 -1 77 -78 -96 vvcurveto
            return
          </CharString>
          <CharString index="42">
            rmoveto
            97 -78 78 -97 vhcurveto
            return
          </CharString>
          <CharString index="43">
            -92 callsubr
            -124 151 vhcurveto
            225 100 -225 -79 callgsubr
            96 77 79 96 vhcurveto
            275 return
          </CharString>
          <CharString index="44">
            788 188 -14 callgsubr
            -232 470 -39 callsubr
            -284 -158 rmoveto
            92 -74 75 -92 -92 -75 -75 -92 -9 callgsubr
            337 -312 rmoveto
            -11 callgsubr
            -420 312 -15 callsubr
            return
          </CharString>
          <CharString index="45">
            hlineto
            -83 -67 67 83 hvcurveto
            -15 callgsubr
            vlineto
            -29 callgsubr
            return
          </CharString>
          <CharString index="46">
            96 77 78 96 1 return
          </CharString>
          <CharString index="47">
            403 hlineto
            138 84 -60 callgsubr
            -138 -84 -28 callsubr
            -353 -100 353 30 callsubr
            return
          </CharString>
          <CharString index="48">
            -55 callsubr
            -724 return
          </CharString>
          <CharString index="49">
            268 -32 callsubr
            -100 -575 vlineto
            -19 callsubr
            vhcurveto
            25 hlineto
            return
          </CharString>
          <CharString index="50">
            hmoveto
            19 11 15 23 22 12 -15 -19 -19 -12 -15 -22 -23 -11 15 19 vhcurveto
            endchar
          </CharString>
          <CharString index="51">
            -275 -64 callsubr
            -450 100 return
          </CharString>
          <CharString index="52">
            100 rmoveto
            -624 500 624 100 return
          </CharString>
          <CharString index="53">
            -51 callgsubr
            100 hlineto
            return
          </CharString>
          <CharString index="54">
            21 20 25 vhcurveto
            return
          </CharString>
          <CharString index="55">
            104 vlineto
            -27 -26 -54 -29 -45 -83 -110 54 -80 hhcurveto
            -44 -58 -22 -28 -27 hvcurveto
            -103 vlineto
            26 25 55 29 45 83 109 -53 80 hhcurveto
            52 51 22 27 27 hvcurveto
            return
          </CharString>
          <CharString index="56">
            -66 callsubr
            -275 100 return
          </CharString>
          <CharString index="57">
            -46 callsubr
            -100 return
          </CharString>
          <CharString index="58">
            -20 25 24 -53 callsubr
            return
          </CharString>
          <CharString index="59">
            805 -99 callgsubr
          </CharString>
          <CharString index="60">
            -41 callgsubr
            hvcurveto
            return
          </CharString>
          <CharString index="61">
            700 rmoveto
            return
          </CharString>
          <CharString index="62">
            -599 172 -46 callgsubr
            return
          </CharString>
          <CharString index="63">
            458 hlineto
            83 67 -67 -83 -83 -67 -68 -83 hvcurveto
            -402 -99 return
          </CharString>
          <CharString index="64">
            -207 -185 -16 callgsubr
            203 -178 rlineto
            132 hlineto
            -246 216 248 222 rlineto
            return
          </CharString>
          <CharString index="65">
            702 1505 -55 callsubr
            -1084 -101 callgsubr
            725 -62 callgsubr
            return
          </CharString>
          <CharString index="66">
            rmoveto
            -228 33 hlineto
            5 2 5 7 vhcurveto
            127 hlineto
            36 56 25 67 hvcurveto
            26 vlineto
            -7 callgsubr
            0 4 0 5 -9 vhcurveto
            -25 vlineto
            -6 -3 -3 -7 vhcurveto
            -126 hlineto
            -67 -25 -56 -36 hvcurveto
            -118 311 vlineto
            endchar
          </CharString>
          <CharString index="67">
            -70 callgsubr
            vhcurveto
            -6 callgsubr
            -64 callgsubr
            return
          </CharString>
          <CharString index="68">
            rmoveto
            -383 -628 rlineto
            96 hlineto
            383 628 rlineto
            return
          </CharString>
          <CharString index="69">
            849 -85 callgsubr
          </CharString>
          <CharString index="70">
            550 rmoveto
            return
          </CharString>
          <CharString index="71">
            rmoveto
            82 -236 -82 vlineto
            endchar
          </CharString>
          <CharString index="72">
            12 callsubr
            -55 -45 -45 -55 hvcurveto
            return
          </CharString>
          <CharString index="73">
            -3 callsubr
            55 45 45 55 hvcurveto
            return
          </CharString>
          <CharString index="74">
            767 -94 callgsubr
          </CharString>
          <CharString index="75">
            100 rmoveto
            -25 hlineto
            17 callgsubr
            hvcurveto
            575 return
          </CharString>
          <CharString index="76">
            265 35 callgsubr
            -24 callgsubr
            -450 100 hlineto
            return
          </CharString>
          <CharString index="77">
            -27 callgsubr
            112 return
          </CharString>
          <CharString index="78">
            -96 -77 -79 -96 vhcurveto
            return
          </CharString>
          <CharString index="79">
            -60 callgsubr
            hvcurveto
            return
          </CharString>
          <CharString index="80">
            576 rmoveto
            -7 callgsubr
            6 3 -2 -7 hvcurveto
            -34 -203 -83 203 -34 vlineto
            -7 -2 -2 -8 vhcurveto
            -193 -84 194 hlineto
            35 57 25 68 hvcurveto
            return
          </CharString>
          <CharString index="81">
            -25 callsubr
            -11 callsubr
            return
          </CharString>
          <CharString index="82">
            -143 -1 -130 -108 -141 vvcurveto
            return
          </CharString>
          <CharString index="83">
            -415 -100 415 hlineto
            194 156 -47 callsubr
            return
          </CharString>
          <CharString index="84">
            24 -21 21 return
          </CharString>
          <CharString index="85">
            -20 callsubr
            504 -100 -750 -5 callsubr
            return
          </CharString>
          <CharString index="86">
            hlineto
            -138 return
          </CharString>
          <CharString index="87">
            -132 361 295 rmoveto
            311 255 rlineto
            -136 hlineto
            -364 -304 rlineto
            return
          </CharString>
          <CharString index="88">
            -97 78 -78 97 return
          </CharString>
          <CharString index="89">
            -580 206 -57 callgsubr
            endchar
          </CharString>
          <CharString index="90">
            31 callsubr
            -90 -90 -110 return
          </CharString>
          <CharString index="91">
            rlineto
            11 9 6 14 14 vvcurveto
            14 -6 14 -11 10 vhcurveto
            return
          </CharString>
          <CharString index="92">
            rmoveto
            -46 -37 -37 -46 -46 -38 37 46 46 38 37 46 46 37 -37 -46 vhcurveto
            return
          </CharString>
          <CharString index="93">
            -15 464 600 rmoveto
            3 callsubr
            -600 100 hlineto
            return
          </CharString>
          <CharString index="94">
            rmoveto
            122 -93 33 -48 vhcurveto
            -123 hlineto
            -49 -92 -33 -122 hvcurveto
            -64 vlineto
            -122 92 -32 49 vhcurveto
            123 hlineto
            48 93 32 122 hvcurveto
            return
          </CharString>
          <CharString index="95">
            rmoveto
            -36 27 -27 33 33 27 27 33 30 -23 25 -29 4 vhcurveto
            7 27 10 16 0 vvcurveto
            -51 1 rlineto
            0 -33 -48 -1 -52 vhcurveto
            endchar
          </CharString>
          <CharString index="96">
            -500 100 475 vlineto
            -37 callgsubr
            return
          </CharString>
          <CharString index="97">
            100 450 0 callsubr
            vlineto
            return
          </CharString>
          <CharString index="98">
            -550 -100 550 hlineto
            return
          </CharString>
          <CharString index="99">
            3 callgsubr
            -425 vlineto
            -2 callgsubr
            vhcurveto
            -77 -100 77 hlineto
            143 1 129 return
          </CharString>
          <CharString index="100">
            -700 100 600 return
          </CharString>
          <CharString index="101">
            64 823 -50 callsubr
            -300 -33 callgsubr
            -300 100 hlineto
            -639 -30 callgsubr
            100 hlineto
            return
          </CharString>
          <CharString index="102">
            100 140 vlineto
            116 95 292 -235 17 callsubr
            return
          </CharString>
          <CharString index="103">
            -29 callsubr
            -204 -80 callsubr
            204 -66 callsubr
            return
          </CharString>
          <CharString index="104">
            hlineto
            -55 -45 45 55 return
          </CharString>
          <CharString index="105">
            18 callsubr
            100 return
          </CharString>
          <CharString index="106">
            15 callgsubr
            -225 -15 callgsubr
            -6 callgsubr
            -200 100 200 225 hlineto
            return
          </CharString>
          <CharString index="107">
            275 -51 callsubr
            return
          </CharString>
          <CharString index="108">
            -154 hlineto
            return
          </CharString>
          <CharString index="109">
            -73 callgsubr
            -227 hlineto
            return
          </CharString>
          <CharString index="110">
            354 100 -808 -100 354 return
          </CharString>
          <CharString index="111">
            -327 hlineto
            return
          </CharString>
          <CharString index="112">
            hlineto
            -96 -77 return
          </CharString>
          <CharString index="113">
            hlineto
            69 56 -56 -69 -69 -56 -56 -69 hvcurveto
            return
          </CharString>
          <CharString index="114">
            110 -90 90 -110 return
          </CharString>
          <CharString index="115" raw="1">
            1e8c0a0b   
          </CharString>
          <CharString index="116">
            hlineto
            110 90 90 110 return
          </CharString>
          <CharString index="117">
            275 rmoveto
            return
          </CharString>
          <CharString index="118">
            rmoveto
            -100 hlineto
            19 -246 rlineto
            61 hlineto
            return
          </CharString>
          <CharString index="119">
            55 45 -45 -55 return
          </CharString>
          <CharString index="120">
            375 hlineto
            return
          </CharString>
          <CharString index="121">
            125 100 -125 187 -100 -187 -125 -100 125 return
          </CharString>
          <CharString index="122">
            -100 -200 return
          </CharString>
          <CharString index="123">
            -33 133 66 rlineto
            return
          </CharString>
          <CharString index="124">
            rlineto
            143 hlineto
            return
          </CharString>
          <CharString index="125">
            hvcurveto
            -350 return
          </CharString>
          <CharString index="126">
            233 hlineto
            return
          </CharString>
          <CharString index="127">
            -34 -41 hvcurveto
            return
          </CharString>
          <CharString index="128">
            -34 callgsubr
            endchar
          </CharString>
          <CharString index="129">
            34 -34 -28 callgsubr
            return
          </CharString>
          <CharString index="130">
            233 9 callgsubr
            128 -41 callgsubr
            return
          </CharString>
          <CharString index="131">
            hvcurveto
            64 vlineto
            98 79 4 9 vhcurveto
            123 hlineto
            return
          </CharString>
          <CharString index="132">
            -138 -83 -52 callgsubr
            -233 hlineto
            return
          </CharString>
          <CharString index="133">
            -200 -43 callgsubr
            endchar
          </CharString>
          <CharString index="134">
            -86 29 callgsubr
            return
          </CharString>
          <CharString index="135">
            rlineto
            114 hlineto
            return
          </CharString>
          <CharString index="136">
            -56 -44 45 55 55 44 45 56 hvcurveto
            return
          </CharString>
          <CharString index="137">
            9 callgsubr
            129 -41 callgsubr
            return
          </CharString>
          <CharString index="138">
            hlineto
            -110 return
          </CharString>
          <CharString index="139">
            hlineto
            -124 -101 -101 -124 hvcurveto
            return
          </CharString>
          <CharString index="140" raw="1">
            981df755 0b  
          </CharString>
          <CharString index="141">
            750 rmoveto
            return
          </CharString>
          <CharString index="142">
            -86 685 return
          </CharString>
        <CharString name=".notdef">
          -468 endchar
        </CharString>
        <CharString name="A">
          -97 callgsubr
          endchar
        </CharString>
        <CharString name="AE">
          -42 callsubr
          endchar
        </CharString>
        <CharString name="AEacute">
          -42 callsubr
          -422 597 -94 callgsubr
        </CharString>
        <CharString name="Aacute">
          -97 callgsubr
          -239 -32 callgsubr
        </CharString>
        <CharString name="Abreve">
          -97 callgsubr
          -255 892 -100 callsubr
        </CharString>
        <CharString name="Acircumflex">
          -97 callgsubr
          -244 -48 callsubr
        </CharString>
        <CharString name="Adieresis">
          -97 callgsubr
          -440 802 -106 callsubr
        </CharString>
        <CharString name="Agrave">
          -97 callgsubr
          -608 821 -67 callgsubr
        </CharString>
        <CharString name="Amacron">
          -97 callgsubr
          -280 762 -36 callsubr
        </CharString>
        <CharString name="Aogonek">
          -100 callgsubr
          11 -86 callgsubr
          19 hlineto
          endchar
        </CharString>
        <CharString name="Aring">
          -97 callgsubr
          -507 821 rmoveto
          -76 callsubr
        </CharString>
        <CharString name="Atilde">
          -97 callgsubr
          -265 874 -97 callsubr
        </CharString>
        <CharString name="B">
          98 908 200 rmoveto
          87 -56 74 -78 27 vhcurveto
          21 32 13 38 42 vvcurveto
          7 callsubr
          vhcurveto
          -524 -7 callsubr
          424 -25 callgsubr
          -374 -100 474 -25 callgsubr
          -474 -100 474 hlineto
          110 90 89 111 hvcurveto
          endchar
        </CharString>
        <CharString name="C">
          11 817 100 rmoveto
          -451 -99 callsubr
          endchar
        </CharString>
        <CharString name="Cacute">
          11 817 100 rmoveto
          -451 -99 callsubr
          -175 -32 callgsubr
        </CharString>
        <CharString name="Ccaron">
          11 817 100 rmoveto
          -451 -99 callsubr
          -485 -38 callsubr
        </CharString>
        <CharString name="Ccedilla">
          11 817 100 rmoveto
          -451 -101 callsubr
          89 -72 callgsubr
          307 hlineto
          endchar
        </CharString>
        <CharString name="Ccircumflex">
          11 817 100 rmoveto
          -451 -99 callsubr
          -170 -48 callsubr
        </CharString>
        <CharString name="Cdotaccent">
          11 817 100 rmoveto
          -451 -99 callsubr
          -285 802 -80 callgsubr
        </CharString>
        <CharString name="D">
          110 909 0 callgsubr
          -503 -7 callsubr
          -60 callsubr
          hvcurveto
          endchar
        </CharString>
        <CharString name="Dcaron">
          110 909 0 callgsubr
          -503 -7 callsubr
          -60 callsubr
          hvcurveto
          -588 499 -85 callgsubr
        </CharString>
        <CharString name="Dcroat">
          -48 callgsubr
        </CharString>
        <CharString name="E">
          -90 callsubr
          endchar
        </CharString>
        <CharString name="Eacute">
          -90 callsubr
          -112 607 -94 callgsubr
        </CharString>
        <CharString name="Ebreve">
          -90 callsubr
          -126 592 -100 callsubr
        </CharString>
        <CharString name="Ecaron">
          -90 callsubr
          -424 549 -85 callgsubr
        </CharString>
        <CharString name="Ecircumflex">
          -90 callsubr
          -117 505 -99 callgsubr
        </CharString>
        <CharString name="Edieresis">
          -90 callsubr
          -313 502 -106 callsubr
        </CharString>
        <CharString name="Edotaccent">
          -90 callsubr
          -224 502 -80 callgsubr
        </CharString>
        <CharString name="Egrave">
          -90 callsubr
          -481 521 -67 callgsubr
        </CharString>
        <CharString name="Emacron">
          -90 callsubr
          -151 462 -36 callsubr
        </CharString>
        <CharString name="Eng">
          99 858 700 rmoveto
          -56 callgsubr
          596 hlineto
          205 -32 304 -211 56 -267 rrcurveto
          -106 -29 -97 -78 -115 hhcurveto
          -24 callsubr
          endchar
        </CharString>
        <CharString name="Eogonek">
          -72 callsubr
          575 -86 callgsubr
          79 -62 callgsubr
          endchar
        </CharString>
        <CharString name="Eth">
          -48 callgsubr
        </CharString>
        <CharString name="Euro">
          202 687 500 rmoveto
          -331 hlineto
          60 37 63 40 82 hhcurveto
          451 100 -451 hlineto
          -140 -106 -82 -118 -48 hvcurveto
          -106 hlineto
          -35 -100 rlineto
          116 hlineto
          -2 -17 -1 -16 -17 vvcurveto
          -17 1 -17 2 -16 vhcurveto
          -151 hlineto
          -35 -100 rlineto
          211 hlineto
          -119 48 106 -81 140 hhcurveto
          451 100 -451 hlineto
          -82 -63 39 61 -37 hvcurveto
          226 hlineto
          35 100 rlineto
          -297 hlineto
          -3 16 -1 17 17 vvcurveto
          17 1 17 3 16 vhcurveto
          332 hlineto
          endchar
        </CharString>
        <CharString name="F">
          -17 809 -46 callsubr
          -725 -7 callsubr
          625 hlineto
          -86 26 callsubr
        </CharString>
        <CharString name="G">
          -91 callsubr
          endchar
        </CharString>
        <CharString name="Gbreve">
          -91 callsubr
          -203 892 -100 callsubr
        </CharString>
        <CharString name="Gcircumflex">
          -91 callsubr
          -186 -48 callsubr
        </CharString>
        <CharString name="Gcommaaccent">
          -91 callsubr
          -286 -123 -104 callgsubr
        </CharString>
        <CharString name="Gdotaccent">
          -91 callsubr
          -301 802 -80 callgsubr
        </CharString>
        <CharString name="H">
          -6 callsubr
          endchar
        </CharString>
        <CharString name="Hbar">
          64 30 callgsubr
          470 497 100 -497 hlineto
          639 130 rmoveto
          -100 -300 -33 callgsubr
          -300 100 hlineto
          endchar
        </CharString>
        <CharString name="Hcircumflex">
          -6 callsubr
          439 -48 callsubr
        </CharString>
        <CharString name="I">
          -54 callsubr
          endchar
        </CharString>
        <CharString name="IJ">
          299 30 callgsubr
          hlineto
          886 -45 callgsubr
          endchar
        </CharString>
        <CharString name="Iacute">
          -54 callsubr
          116 -32 callgsubr
        </CharString>
        <CharString name="Ibreve">
          -54 callsubr
          93 892 -100 callsubr
        </CharString>
        <CharString name="Icircumflex">
          -54 callsubr
          110 -48 callsubr
        </CharString>
        <CharString name="Idieresis">
          -54 callsubr
          -86 802 -106 callsubr
        </CharString>
        <CharString name="Idotaccent">
          -54 callsubr
          -5 808 -80 callgsubr
        </CharString>
        <CharString name="Igrave">
          -54 callsubr
          -253 821 -67 callgsubr
        </CharString>
        <CharString name="Imacron">
          -54 callsubr
          68 762 -36 callsubr
        </CharString>
        <CharString name="Iogonek">
          -51 callgsubr
          11 -86 callgsubr
          19 hlineto
          endchar
        </CharString>
        <CharString name="Itilde">
          -54 callsubr
          89 874 -97 callsubr
        </CharString>
        <CharString name="J">
          31 802 -45 callgsubr
          endchar
        </CharString>
        <CharString name="Jcircumflex">
          31 802 -45 callgsubr
          -205 455 -99 callgsubr
        </CharString>
        <CharString name="K">
          50 482 415 rmoveto
          397 285 rlineto
          -146 hlineto
          -549 -390 rlineto
          390 -100 -700 100 200 vlineto
          222 160 357 -360 rlineto
          135 hlineto
          endchar
        </CharString>
        <CharString name="Kcommaaccent">
          50 482 415 rmoveto
          397 285 rlineto
          -146 hlineto
          -549 -390 rlineto
          390 -100 -700 100 200 vlineto
          222 160 357 -360 rlineto
          135 hlineto
          -392 -93 -104 callgsubr
        </CharString>
        <CharString name="L">
          -80 -40 callgsubr
          endchar
        </CharString>
        <CharString name="Lacute">
          -80 -40 callgsubr
          -446 908 -94 callgsubr
        </CharString>
        <CharString name="Lcaron">
          -80 -40 callgsubr
          -312 678 -104 callgsubr
        </CharString>
        <CharString name="Lcommaaccent">
          -80 -40 callgsubr
          -312 -113 -104 callgsubr
        </CharString>
        <CharString name="Ldot">
          107 -40 callgsubr
          134 356 rmoveto
          -92 callgsubr
          endchar
        </CharString>
        <CharString name="Lslash">
          -31 553 488 rmoveto
          -320 -98 6 callgsubr
          -249 669 100 -569 180 vlineto
          320 98 rlineto
          endchar
        </CharString>
        <CharString name="M">
          233 588 13 callgsubr
          -30 callsubr
          138 vhcurveto
          54 -600 31 callgsubr
          1 callsubr
          -127 -112 -69 -101 -61 hvcurveto
          101 -62 -111 69 -127 hhcurveto
          -154 -7 callsubr
          54 hlineto
          138 112 -28 callsubr
          -350 100 vlineto
          endchar
        </CharString>
        <CharString name="N">
          -79 callsubr
          endchar
        </CharString>
        <CharString name="Nacute">
          -79 callsubr
          482 -32 callgsubr
        </CharString>
        <CharString name="Ncaron">
          -79 callsubr
          132 -38 callsubr
        </CharString>
        <CharString name="Ncommaaccent">
          -79 callsubr
          347 -103 -104 callgsubr
        </CharString>
        <CharString name="Ntilde">
          -79 callsubr
          426 874 -97 callsubr
        </CharString>
        <CharString name="O">
          -107 callgsubr
          endchar
        </CharString>
        <CharString name="OE">
          740 1543 -59 callsubr
          -89 hlineto
          55 -55 -76 34 -89 hhcurveto
          -233 -98 callsubr
          19 callsubr
          89 76 33 55 55 hvcurveto
          -88 724 vlineto
          -944 600 rmoveto
          129 91 -104 -146 -152 -91 -98 -129 hvcurveto
          -233 -21 callsubr
          -84 -71 callsubr
          -69 callsubr
          hvcurveto
          1092 26 callsubr
        </CharString>
        <CharString name="Oacute">
          -107 callgsubr
          -173 557 -94 callgsubr
        </CharString>
        <CharString name="Obreve">
          -107 callgsubr
          -195 542 -100 callsubr
        </CharString>
        <CharString name="Ocircumflex">
          -107 callgsubr
          -178 455 -99 callgsubr
        </CharString>
        <CharString name="Odieresis">
          -107 callgsubr
          -374 452 -106 callsubr
        </CharString>
        <CharString name="Ograve">
          -107 callgsubr
          -542 471 -67 callgsubr
        </CharString>
        <CharString name="Ohungarumlaut">
          -107 callgsubr
          -277 535 -58 callgsubr
        </CharString>
        <CharString name="Omacron">
          -107 callgsubr
          -220 412 -36 callsubr
        </CharString>
        <CharString name="Oslash">
          -73 callsubr
          endchar
        </CharString>
        <CharString name="Oslashacute">
          -73 callsubr
          -163 557 -94 callgsubr
        </CharString>
        <CharString name="Otilde">
          -107 callgsubr
          -199 524 -97 callsubr
        </CharString>
        <CharString name="P">
          74 892 35 callgsubr
          -66 callgsubr
          402 hlineto
          -30 callsubr
          138 hvcurveto
          endchar
        </CharString>
        <CharString name="Q">
          849 -84 rmoveto
          -117 112 rlineto
          116 54 72 123 145 vvcurveto
          -94 callsubr
          8 9 0 1 8 hvcurveto
          90 -85 rlineto
          106 434 rmoveto
          -119 -62 -100 -106 -25 vhcurveto
          -87 85 rlineto
          -140 hlineto
          95 -91 rlineto
          -154 -21 callsubr
          -84 -71 callsubr
          -69 callsubr
          hvcurveto
          19 callsubr
          138 83 -28 callsubr
          endchar
        </CharString>
        <CharString name="R">
          -81 callsubr
          endchar
        </CharString>
        <CharString name="Racute">
          -81 callsubr
          -259 -32 callgsubr
        </CharString>
        <CharString name="Rcaron">
          -81 callsubr
          -579 -38 callsubr
        </CharString>
        <CharString name="Rcommaaccent">
          -81 callsubr
          -364 -103 -104 callgsubr
        </CharString>
        <CharString name="S">
          -87 callsubr
          endchar
        </CharString>
        <CharString name="Sacute">
          -87 callsubr
          -237 707 -94 callgsubr
        </CharString>
        <CharString name="Scaron">
          -87 callsubr
          -559 649 -85 callgsubr
        </CharString>
        <CharString name="Scedilla">
          -91 callgsubr
          371 -72 callgsubr
          182 -3 callgsubr
          endchar
        </CharString>
        <CharString name="Scircumflex">
          -87 callsubr
          -252 605 -99 callgsubr
        </CharString>
        <CharString name="T">
          -14 callsubr
          endchar
        </CharString>
        <CharString name="Tbar">
          -15 614 15 callgsubr
          -150 200 3 callsubr
          -200 10 callgsubr
          -300 100 300 150 hlineto
          endchar
        </CharString>
        <CharString name="Tcaron">
          -14 callsubr
          -205 -38 callsubr
        </CharString>
        <CharString name="Tcommaaccent">
          -14 callsubr
          10 -123 -104 callgsubr
        </CharString>
        <CharString name="Thorn">
          74 892 13 callgsubr
          -17 callgsubr
          -458 101 -100 -701 100 500 -44 callsubr
          402 hlineto
          -30 callsubr
          138 hvcurveto
          endchar
        </CharString>
        <CharString name="U">
          -106 callgsubr
          endchar
        </CharString>
        <CharString name="Uacute">
          -106 callgsubr
          -221 207 -94 callgsubr
        </CharString>
        <CharString name="Ubreve">
          -106 callgsubr
          -244 192 -100 callsubr
        </CharString>
        <CharString name="Ucircumflex">
          -106 callgsubr
          -227 105 -99 callgsubr
        </CharString>
        <CharString name="Udieresis">
          -106 callgsubr
          -423 102 -106 callsubr
        </CharString>
        <CharString name="Ugrave">
          -106 callgsubr
          -590 121 -67 callgsubr
        </CharString>
        <CharString name="Uhungarumlaut">
          -106 callgsubr
          -356 185 -58 callgsubr
        </CharString>
        <CharString name="Umacron">
          -106 callgsubr
          -269 62 -36 callsubr
        </CharString>
        <CharString name="Uogonek">
          51 834 -46 callsubr
          -101 -98 callgsubr
          13 -84 callgsubr
          21 14 24 23 19 hvcurveto
          188 6 151 153 191 vvcurveto
          endchar
        </CharString>
        <CharString name="Uring">
          -106 callgsubr
          -490 121 rmoveto
          -76 callsubr
        </CharString>
        <CharString name="Utilde">
          -106 callgsubr
          -248 174 -97 callsubr
        </CharString>
        <CharString name="V">
          37 751 -46 callsubr
          -311 -592 -311 592 rlineto
          -114 hlineto
          368 19 callgsubr
        </CharString>
        <CharString name="W">
          -95 callgsubr
          endchar
        </CharString>
        <CharString name="Wacute">
          -95 callgsubr
          -289 655 -94 callgsubr
        </CharString>
        <CharString name="Wcircumflex">
          -95 callgsubr
          -295 553 -99 callgsubr
        </CharString>
        <CharString name="Wdieresis">
          -95 callgsubr
          -491 550 -106 callsubr
        </CharString>
        <CharString name="Wgrave">
          -95 callgsubr
          -658 569 -67 callgsubr
        </CharString>
        <CharString name="X">
          -24 136 -46 callsubr
          -131 hlineto
          339 -350 -339 -350 34 callgsubr
          273 282 274 -282 34 callgsubr
          -131 -46 callsubr
          -239 -247 65 -67 305 314 rlineto
          endchar
        </CharString>
        <CharString name="Y">
          -89 callgsubr
          endchar
        </CharString>
        <CharString name="Yacute">
          -89 callgsubr
          -239 707 -94 callgsubr
        </CharString>
        <CharString name="Ycircumflex">
          -89 callgsubr
          -234 605 -99 callgsubr
        </CharString>
        <CharString name="Ydieresis">
          -89 callgsubr
          -441 602 -106 callsubr
        </CharString>
        <CharString name="Ygrave">
          -89 callgsubr
          -598 621 -67 callgsubr
        </CharString>
        <CharString name="Z">
          49 851 -46 callsubr
          -809 -100 647 hlineto
          -647 -500 rlineto
          -100 809 100 -643 vlineto
          643 500 rlineto
          endchar
        </CharString>
        <CharString name="Zacute">
          49 851 -46 callsubr
          -809 -100 647 hlineto
          -647 -500 rlineto
          -100 809 100 -643 vlineto
          643 500 rlineto
          -240 307 -94 callgsubr
        </CharString>
        <CharString name="Zcaron">
          49 851 -46 callsubr
          -809 -100 647 hlineto
          -647 -500 rlineto
          -100 809 100 -643 vlineto
          643 500 rlineto
          -560 249 -85 callgsubr
        </CharString>
        <CharString name="Zdotaccent">
          49 851 -46 callsubr
          -809 -100 647 hlineto
          -647 -500 rlineto
          -100 809 100 -643 vlineto
          643 500 rlineto
          -360 212 -80 callgsubr
        </CharString>
        <CharString name="a">
          -102 callgsubr
          endchar
        </CharString>
        <CharString name="aacute">
          -102 callgsubr
          -172 -33 callsubr
        </CharString>
        <CharString name="abreve">
          -102 callgsubr
          -172 752 -100 callsubr
        </CharString>
        <CharString name="acircumflex">
          -102 callgsubr
          -178 -47 callgsubr
        </CharString>
        <CharString name="acute">
          -636 169 747 -94 callgsubr
        </CharString>
        <CharString name="adieresis">
          -102 callgsubr
          -374 662 -106 callsubr
        </CharString>
        <CharString name="ae">
          -68 callgsubr
          endchar
        </CharString>
        <CharString name="aeacute">
          -68 callgsubr
          -283 467 -94 callgsubr
        </CharString>
        <CharString name="agrave">
          -102 callgsubr
          -541 681 -67 callgsubr
        </CharString>
        <CharString name="amacron">
          -102 callgsubr
          -197 622 -36 callsubr
        </CharString>
        <CharString name="ampersand">
          -5 707 300 rmoveto
          100 100 -300 -100 100 -200 -350 -34 callsubr
          150 100 -150 hlineto
          -4 hlineto
          -53 2 -43 44 54 vvcurveto
          55 45 45 55 vhcurveto
          450 100 -450 -17 callsubr
          -60 26 -54 42 -36 hvcurveto
          -42 -37 -26 -54 -59 vvcurveto
          22 callgsubr
          450 hlineto
          endchar
        </CharString>
        <CharString name="aogonek">
          -104 callsubr
          401 -86 callgsubr
          29 hlineto
          endchar
        </CharString>
        <CharString name="approxequal">
          -182 595 221 rmoveto
          -52 callsubr
          200 vmoveto
          -52 callsubr
          endchar
        </CharString>
        <CharString name="aring">
          -102 callgsubr
          -441 681 rmoveto
          -76 callsubr
        </CharString>
        <CharString name="asciicircum">
          -327 478 432 rmoveto
          -185 207 rlineto
          11 -10 -14 6 -14 hhcurveto
          -14 -14 -6 -11 -9 hvcurveto
          -178 -203 60 -63 156 177 159 -178 rlineto
          endchar
        </CharString>
        <CharString name="asciitilde">
          -182 595 321 rmoveto
          -52 callsubr
          endchar
        </CharString>
        <CharString name="asterisk">
          -297 433 675 rmoveto
          -120 -98 10 162 rlineto
          -100 hlineto
          9 -162 -119 98 -58 -81 149 -95 -149 -95 58 -81 119 97 -9 -161 rlineto
          100 hlineto
          -10 161 120 -97 58 81 -150 95 150 95 rlineto
          endchar
        </CharString>
        <CharString name="at">
          -146 416 289 rmoveto
          -121 hlineto
          -76 -28 -62 -42 -77 62 -27 42 hvcurveto
          250 hlineto
          77 27 62 42 hvcurveto
          187 vlineto
          123 -99 44 -67 vhcurveto
          -250 hlineto
          -123 -44 -100 -67 hvcurveto
          -250 vlineto
          -122 100 -44 67 vhcurveto
          62 83 -62 hlineto
          -20 -64 7 76 hvcurveto
          250 vlineto
          20 8 64 76 vhcurveto
          249 hlineto
          20 64 -8 -76 hvcurveto
          -187 vlineto
          -21 -14 0 -7 vhcurveto
          -21 146 hlineto
          76 -62 28 -42 vhcurveto
          -174 -83 174 hlineto
          21 0 -16 -5 hvcurveto
          -146 -146 vlineto
          -21 0 16 5 21 16 0 5 hvcurveto
          121 hlineto
          endchar
        </CharString>
        <CharString name="atilde">
          -102 callgsubr
          -199 -63 callgsubr
        </CharString>
        <CharString name="b">
          -86 -19 callgsubr
          -6 callgsubr
          -66 callsubr
          -29 callsubr
          -275 650 -100 -750 375 -67 callsubr
          endchar
        </CharString>
        <CharString name="backslash">
          -307 140 -46 callsubr
          -114 hlineto
          368 -700 28 callsubr
          endchar
        </CharString>
        <CharString name="bar">
          -591 176 850 rmoveto
          -100 -975 100 hlineto
          endchar
        </CharString>
        <CharString name="braceleft">
          -441 374 848 rmoveto
          -50 hlineto
          -99 -99 -62 -111 hvcurveto
          -5 -1 -63 -119 vvcurveto
          -58 -41 -17 -35 -28 -22 -23 -27 -28 22 -22 28 43 33 -31 -45 vhcurveto
          -1 -187 rlineto
          -128 119 -47 79 vhcurveto
          50 100 -50 hlineto
          -44 -54 22 53 hvcurveto
          1 188 rlineto
          39 -15 49 -35 36 vhcurveto
          30 28 20 41 57 123 1 63 1 vvcurveto
          1 vlineto
          52 51 20 47 vhcurveto
          50 hlineto
          endchar
        </CharString>
        <CharString name="braceright">
          -441 28 748 rmoveto
          50 hlineto
          47 51 -20 -52 hvcurveto
          -1 vlineto
          -1 1 -63 -123 vvcurveto
          -57 20 -41 30 -28 vhcurveto
          -35 -36 -15 -49 -39 vvcurveto
          1 -188 rlineto
          -53 -54 -22 -44 vhcurveto
          -50 -100 50 hlineto
          79 119 47 128 hvcurveto
          -1 187 rlineto
          45 33 31 43 28 22 22 28 27 -22 23 -28 -35 -41 17 58 vhcurveto
          119 -1 63 5 vvcurveto
          111 -99 62 -99 vhcurveto
          -50 hlineto
          endchar
        </CharString>
        <CharString name="bracketleft">
          -488 326 848 rmoveto
          -200 hlineto
          -28 -22 -22 -28 hvcurveto
          -873 vlineto
          -28 22 -22 28 vhcurveto
          200 100 -150 773 150 hlineto
          endchar
        </CharString>
        <CharString name="bracketright">
          -488 29 748 rmoveto
          150 -773 -150 -100 200 hlineto
          28 22 22 28 hvcurveto
          873 vlineto
          28 -22 22 -28 vhcurveto
          -200 hlineto
          endchar
        </CharString>
        <CharString name="breve">
          -557 286 732 -100 callsubr
        </CharString>
        <CharString name="brokenbar">
          -587 178 850 rmoveto
          -100 -412 100 hlineto
          -150 vmoveto
          -100 -413 100 hlineto
          endchar
        </CharString>
        <CharString name="bullet">
          -484 278 356 rmoveto
          52 -45 45 -53 -55 -43 -45 -52 -55 43 -43 55 53 45 43 55 vhcurveto
          endchar
        </CharString>
        <CharString name="c">
          -83 callsubr
          endchar
        </CharString>
        <CharString name="cacute">
          -83 callsubr
          -84 -33 callsubr
        </CharString>
        <CharString name="caron">
          -533 689 vmoveto
          -86 callsubr
        </CharString>
        <CharString name="ccaron">
          -83 callsubr
          -395 709 -85 callgsubr
        </CharString>
        <CharString name="ccedilla">
          -88 callgsubr
          52 -72 callgsubr
          220 hlineto
          endchar
        </CharString>
        <CharString name="ccircumflex">
          -83 callsubr
          -110 -47 callgsubr
        </CharString>
        <CharString name="cdotaccent">
          -83 callsubr
          -195 662 -80 callgsubr
        </CharString>
        <CharString name="cedilla">
          -653 128 7 rmoveto
          -55 hlineto
          -30 -80 -78 callsubr
          endchar
        </CharString>
        <CharString name="cent">
          -301 484 249 rmoveto
          -243 hlineto
          -59 -48 49 59 60 48 49 59 hvcurveto
          243 98 -141 136 -93 -136 -9 hlineto
          -113 -92 -94 -112 -109 81 -98 110 hvcurveto
          23 -151 93 151 141 hlineto
          endchar
        </CharString>
        <CharString name="circumflex">
          -523 320 645 -99 callgsubr
        </CharString>
        <CharString name="colon">
          -565 214 75 rmoveto
          -92 callgsubr
          401 vmoveto
          -92 callgsubr
          endchar
        </CharString>
        <CharString name="comma">
          -18 callsubr
        </CharString>
        <CharString name="copyright">
          -300 474 395 -13 callsubr
          -53 hmoveto
          -98 -79 -3 -9 vhcurveto
          -123 hlineto
          -9 -79 3 98 24 callsubr
          8 80 -4 -98 hvcurveto
          -66 -83 rmoveto
          -91 hlineto
          -7 -36 1 36 hvcurveto
          32 vlineto
          14 6 23 36 vhcurveto
          92 54 -92 hlineto
          -65 -29 -47 -44 hvcurveto
          -32 vlineto
          -67 56 -24 39 vhcurveto
          91 hlineto
          endchar
        </CharString>
        <CharString name="currency">
          -308 351 360 -15 callsubr
          67 -71 rmoveto
          10 21 6 24 26 vvcurveto
          26 -6 24 -11 22 vhcurveto
          66 59 -67 70 -64 -58 rlineto
          15 -25 -28 9 -31 hhcurveto
          -32 -29 -9 -15 -25 hvcurveto
          -64 58 -66 -70 65 -60 rlineto
          -11 -21 -5 -25 -25 vvcurveto
          -25 5 -24 10 -22 vhcurveto
          -64 -58 66 -70 62 56 rlineto
          -15 26 30 -9 32 hhcurveto
          31 30 8 16 25 hvcurveto
          62 -56 67 70 rlineto
          endchar
        </CharString>
        <CharString name="d">
          -86 -36 callgsubr
          endchar
        </CharString>
        <CharString name="dagger">
          -419 262 563 rmoveto
          14 callsubr
          -688 100 hlineto
          endchar
        </CharString>
        <CharString name="daggerdbl">
          -405 394 163 rmoveto
          -125 400 14 callsubr
          -400 -125 -100 125 -188 100 188 125 hlineto
          endchar
        </CharString>
        <CharString name="dcaron">
          115 -36 callgsubr
          206 -61 callgsubr
        </CharString>
        <CharString name="dcroat">
          35 callsubr
          34 callsubr
          -100 -49 -219 -100 219 -51 -56 callsubr
          601 71 100 -71 hlineto
          endchar
        </CharString>
        <CharString name="degree">
          -543 51 606 rmoveto
          -50 29 -43 70 69 30 43 50 51 -25 43 -74 -66 -33 -43 -51 vhcurveto
          67 -57 callsubr
        </CharString>
        <CharString name="dieresis">
          -589 91 642 -106 callsubr
        </CharString>
        <CharString name="divide">
          -201 396 525 rmoveto
          -92 callgsubr
          200 -125 rmoveto
          -9 callsubr
          -200 -125 rmoveto
          -92 callgsubr
          endchar
        </CharString>
        <CharString name="dollar">
          -308 498 287 rmoveto
          76 -61 61 -76 vhcurveto
          -192 hlineto
          -12 -9 9 12 11 8 10 13 hvcurveto
          294 98 -143 136 -93 -136 -58 hlineto
          -66 -53 -53 -66 -66 53 -53 66 hvcurveto
          192 hlineto
          22 17 -17 -22 -21 -17 -17 -22 hvcurveto
          -311 -98 177 -151 93 151 41 hlineto
          76 61 61 75 hvcurveto
          endchar
        </CharString>
        <CharString name="dotaccent">
          -753 90 642 -80 callgsubr
        </CharString>
        <CharString name="dotlessi">
          -49 callgsubr
          endchar
        </CharString>
        <CharString name="dotlessj">
          -35 callgsubr
          endchar
        </CharString>
        <CharString name="e">
          -95 callsubr
          327 -103 callgsubr
          endchar
        </CharString>
        <CharString name="eacute">
          -95 callsubr
          327 -103 callgsubr
          3 467 -94 callgsubr
        </CharString>
        <CharString name="ebreve">
          -95 callsubr
          327 -103 callgsubr
          5 452 -100 callsubr
        </CharString>
        <CharString name="ecaron">
          -95 callsubr
          327 -103 callgsubr
          -293 409 -85 callgsubr
        </CharString>
        <CharString name="ecircumflex">
          -95 callsubr
          327 -103 callgsubr
          -3 365 -99 callgsubr
        </CharString>
        <CharString name="edieresis">
          -95 callsubr
          327 -103 callgsubr
          -199 362 -106 callsubr
        </CharString>
        <CharString name="edotaccent">
          -95 callsubr
          327 -103 callgsubr
          -93 362 -80 callgsubr
        </CharString>
        <CharString name="egrave">
          -95 callsubr
          327 -103 callgsubr
          -366 381 -67 callgsubr
        </CharString>
        <CharString name="eight">
          -5 744 500 rmoveto
          7 callsubr
          vhcurveto
          -250 hlineto
          -111 -89 -90 -110 -49 17 -45 30 -35 hvcurveto
          -58 -35 -39 -64 -72 vvcurveto
          -110 89 -90 111 vhcurveto
          350 9 callsubr
          72 -40 64 -58 35 hvcurveto
          30 35 18 45 49 vvcurveto
          -150 -200 rmoveto
          -35 callsubr
          -350 hlineto
          29 callsubr
          50 100 rmoveto
          29 callsubr
          250 -25 callgsubr
          endchar
        </CharString>
        <CharString name="ellipsis">
          -63 205 75 rmoveto
          -92 callgsubr
          260 hmoveto
          -92 callgsubr
          260 hmoveto
          -92 callgsubr
          endchar
        </CharString>
        <CharString name="emacron">
          -95 callsubr
          327 -103 callgsubr
          -50 322 -36 callsubr
        </CharString>
        <CharString name="emdash">
          85 864 15 callgsubr
          -800 -100 800 hlineto
          endchar
        </CharString>
        <CharString name="endash">
          -315 464 15 callgsubr
          -53 callgsubr
          endchar
        </CharString>
        <CharString name="eng">
          -60 172 35 callgsubr
          275 -66 callsubr
          -300 vlineto
          -40 callsubr
          300 vlineto
          -75 callsubr
          -375 4 callgsubr
          endchar
        </CharString>
        <CharString name="eogonek">
          -95 callsubr
          233 -86 callgsubr
          24 -103 callgsubr
          endchar
        </CharString>
        <CharString name="equal">
          -161 616 -37 callsubr
          -9 callsubr
          -200 vmoveto
          -4 callgsubr
        </CharString>
        <CharString name="eth">
          -18 786 731 rmoveto
          -200 hlineto
          -35 69 rlineto
          -114 hlineto
          36 -69 rlineto
          -237 -100 289 hlineto
          46 -87 rlineto
          4 -19 -19 2 -19 hhcurveto
          -204 -96 callsubr
          204 -67 callsubr
          55 -16 51 -28 43 vhcurveto
          -106 207 rlineto
          149 hlineto
          -99 -356 -5 callgsubr
          endchar
        </CharString>
        <CharString name="exclam">
          -581 74 -46 callsubr
          21 -512 rlineto
          72 hlineto
          21 512 rlineto
          18 -625 rmoveto
          -92 callgsubr
          endchar
        </CharString>
        <CharString name="exclamdown">
          -581 188 hmoveto
          -21 512 rlineto
          -72 hlineto
          -21 -512 rlineto
          -18 625 rmoveto
          -41 22 callsubr
          41 -34 34 -41 -70 callgsubr
          vhcurveto
          endchar
        </CharString>
        <CharString name="f">
          -205 -13 callgsubr
          -150 vmoveto
          -53 callgsubr
          endchar
        </CharString>
        <CharString name="fi">
          39 -13 callgsubr
          188 -150 rmoveto
          -588 -100 488 -400 100 hlineto
          25 2 callgsubr
          endchar
        </CharString>
        <CharString name="five">
          -90 716 225 rmoveto
          124 -100 101 -125 vhcurveto
          -326 150 501 100 -601 -350 426 6 callsubr
          -427 -100 427 hlineto
          125 100 101 124 hvcurveto
          endchar
        </CharString>
        <CharString name="fl">
          78 906 -32 callsubr
          -461 vlineto
          -26 callsubr
          361 -475 hlineto
          -19 callsubr
          vhcurveto
          25 hlineto
          -284 500 rmoveto
          -53 callgsubr
          endchar
        </CharString>
        <CharString name="florin">
          -152 675 34 callsubr
          -277 -8 callsubr
          108 141 vvcurveto
          1 425 hlineto
          -37 callgsubr
          277 hlineto
          -100 -150 rmoveto
          -300 -100 300 hlineto
          endchar
        </CharString>
        <CharString name="four">
          -19 40 35 callgsubr
          22 callgsubr
          400 -250 31 callgsubr
          20 callgsubr
          -400 -3 callsubr
          hvcurveto
          250 -100 vlineto
          endchar
        </CharString>
        <CharString name="fraction">
          -350 389 14 callgsubr
          endchar
        </CharString>
        <CharString name="g">
          -93 callsubr
          endchar
        </CharString>
        <CharString name="gbreve">
          -93 callsubr
          -164 777 -100 callsubr
        </CharString>
        <CharString name="gcircumflex">
          -93 callsubr
          -147 690 -99 callgsubr
        </CharString>
        <CharString name="gcommaaccent">
          -93 callsubr
          -367 706 -12 callsubr
        </CharString>
        <CharString name="gdotaccent">
          -93 callsubr
          -262 687 -80 callgsubr
        </CharString>
        <CharString name="germandbls">
          51 872 -59 callgsubr
          50 hlineto
          83 67 67 83 83 -67 67 -83 hvcurveto
          -127 hlineto
          -143 -130 -110 -140 hvcurveto
          -11 callsubr
          127 hlineto
          28 22 -22 -28 -28 -22 -22 -28 hvcurveto
          -50 hlineto
          -83 -67 -67 -83 -83 67 -67 83 hvcurveto
          275 -77 callsubr
          -425 -100 425 -64 callgsubr
          endchar
        </CharString>
        <CharString name="grave">
          -636 661 vmoveto
          -65 callgsubr
        </CharString>
        <CharString name="greater">
          -330 53 620 rmoveto
          318 -284 -317 -278 34 callgsubr
          275 240 -16 callsubr
          -277 247 rlineto
          endchar
        </CharString>
        <CharString name="guillemotleft">
          -176 264 488 rmoveto
          -43 callsubr
          100 hmoveto
          -43 callsubr
          endchar
        </CharString>
        <CharString name="guillemotright">
          -176 273 488 rmoveto
          -42 callgsubr
          -360 hmoveto
          -42 callgsubr
          endchar
        </CharString>
        <CharString name="guilsinglleft">
          -406 264 488 rmoveto
          -43 callsubr
          endchar
        </CharString>
        <CharString name="guilsinglright">
          -406 43 488 rmoveto
          -42 callgsubr
          endchar
        </CharString>
        <CharString name="h">
          -20 callgsubr
          endchar
        </CharString>
        <CharString name="hbar">
          -60 -19 callgsubr
          -275 55 229 93 -229 52 -100 -52 -71 -93 71 -605 -10 callsubr
          endchar
        </CharString>
        <CharString name="hcircumflex">
          -20 callgsubr
          -169 -47 callgsubr
        </CharString>
        <CharString name="hungarumlaut">
          -539 113 725 -58 callgsubr
        </CharString>
        <CharString name="hyphen">
          -165 614 5 callgsubr
        </CharString>
        <CharString name="i">
          -599 -10 callgsubr
          endchar
        </CharString>
        <CharString name="iacute">
          -49 callgsubr
          116 -33 callsubr
        </CharString>
        <CharString name="ibreve">
          -49 callgsubr
          93 752 -100 callsubr
        </CharString>
        <CharString name="icircumflex">
          -49 callgsubr
          110 -47 callgsubr
        </CharString>
        <CharString name="idieresis">
          -49 callgsubr
          -86 662 -106 callsubr
        </CharString>
        <CharString name="igrave">
          -49 callgsubr
          -253 681 -67 callgsubr
        </CharString>
        <CharString name="ij">
          -355 -10 callgsubr
          244 -46 callgsubr
          -575 hlineto
          -40 callsubr
          25 -46 callsubr
          41 -33 34 -42 -70 callgsubr
          -41 34 -34 41 42 33 34 41 vhcurveto
          endchar
        </CharString>
        <CharString name="imacron">
          -49 callgsubr
          68 622 -36 callsubr
        </CharString>
        <CharString name="integral">
          -238 599 34 callsubr
          -68 -8 callsubr
          116 133 vvcurveto
          1 425 hlineto
          -37 callgsubr
          68 hlineto
          endchar
        </CharString>
        <CharString name="iogonek">
          -45 callsubr
          -550 9 -86 callgsubr
          21 hlineto
          25 2 callgsubr
          endchar
        </CharString>
        <CharString name="itilde">
          -49 callgsubr
          89 -63 callgsubr
        </CharString>
        <CharString name="j">
          -35 callgsubr
          25 -46 callsubr
          41 -33 34 -42 -70 callgsubr
          -41 34 -34 41 42 33 34 41 vhcurveto
          endchar
        </CharString>
        <CharString name="jcircumflex">
          -35 callgsubr
          110 670 -99 callgsubr
        </CharString>
        <CharString name="k">
          -22 callsubr
          endchar
        </CharString>
        <CharString name="kcommaaccent">
          -22 callsubr
          -308 -93 -104 callgsubr
        </CharString>
        <CharString name="kgreenlandic">
          -20 callsubr
          304 -100 -550 -5 callsubr
          endchar
        </CharString>
        <CharString name="l">
          -560 -58 callsubr
          endchar
        </CharString>
        <CharString name="lacute">
          -560 -58 callsubr
          21 953 -94 callgsubr
        </CharString>
        <CharString name="lcaron">
          -414 -58 callsubr
          94 -61 callgsubr
        </CharString>
        <CharString name="lcommaaccent">
          -560 -58 callsubr
          -87 -113 -104 callgsubr
        </CharString>
        <CharString name="ldotaccent">
          -353 -58 callsubr
          155 356 rmoveto
          -92 callgsubr
          endchar
        </CharString>
        <CharString name="less">
          -330 330 620 rmoveto
          -277 -247 -16 callgsubr
          275 -240 34 callgsubr
          -317 278 318 284 rlineto
          endchar
        </CharString>
        <CharString name="logicalnot">
          -256 515 15 callgsubr
          -458 -99 359 -187 99 hlineto
          endchar
        </CharString>
        <CharString name="lslash">
          -453 378 480 rmoveto
          -131 -40 6 callgsubr
          -124 vlineto
          -19 callsubr
          vhcurveto
          25 100 -25 hlineto
          17 callgsubr
          hvcurveto
          155 vlineto
          131 40 rlineto
          endchar
        </CharString>
        <CharString name="m">
          92 172 35 callgsubr
          250 -450 100 450 77 -70 callsubr
          -527 4 callgsubr
          endchar
        </CharString>
        <CharString name="macron">
          -607 236 602 -36 callsubr
        </CharString>
        <CharString name="minus">
          -161 616 5 callgsubr
        </CharString>
        <CharString name="mu">
          -67 722 -46 callgsubr
          -450 -275 -82 callsubr
          -750 100 262 vlineto
          -39 47 60 -23 66 hhcurveto
          13 callsubr
          endchar
        </CharString>
        <CharString name="multiply">
          -151 417 13 callgsubr
          221 200 rlineto
          -143 hlineto
          -149 -135 -149 135 rlineto
          -143 hlineto
          220 -200 -220 -200 17 callsubr
          149 135 149 -135 17 callsubr
          endchar
        </CharString>
        <CharString name="n">
          -74 callgsubr
          endchar
        </CharString>
        <CharString name="nacute">
          -74 callgsubr
          385 -33 callsubr
        </CharString>
        <CharString name="napostrophe">
          77 184 748 -105 callgsubr
          125 -298 -78 callgsubr
          endchar
        </CharString>
        <CharString name="nbspace">
          -468 endchar
        </CharString>
        <CharString name="ncaron">
          -74 callgsubr
          64 709 -85 callgsubr
        </CharString>
        <CharString name="ncommaaccent">
          -74 callgsubr
          279 -103 -104 callgsubr
        </CharString>
        <CharString name="nine">
          -42 737 475 16 callgsubr
          -250 hlineto
          -125 -100 -101 -124 -124 100 -101 125 hvcurveto
          325 100 -325 27 callgsubr
          250 hlineto
          69 56 -56 -69 hvcurveto
          -250 vlineto
          -69 -56 -56 -69 vhcurveto
          -425 -100 425 28 callgsubr
        </CharString>
        <CharString name="notequal">
          -135 629 250 rmoveto
          -273 hlineto
          105 200 rlineto
          168 100 -115 hlineto
          59 111 rlineto
          -114 hlineto
          -59 -111 rlineto
          -321 -100 268 hlineto
          -105 -200 rlineto
          -163 -100 110 hlineto
          -57 -109 28 callsubr
          57 109 rlineto
          326 hlineto
          endchar
        </CharString>
        <CharString name="ntilde">
          -74 callgsubr
          363 -63 callgsubr
        </CharString>
        <CharString name="numbersign">
          -123 85 396 rmoveto
          127 hlineto
          -26 -119 rlineto
          -129 hlineto
          -22 -94 rlineto
          130 24 callgsubr
          122 24 callgsubr
          129 hlineto
          20 94 rlineto
          -128 hlineto
          26 119 rlineto
          132 hlineto
          20 94 rlineto
          -131 25 callgsubr
          -122 25 callgsubr
          -126 hlineto
          204 -94 rmoveto
          122 hlineto
          -26 -119 rlineto
          -122 hlineto
          endchar
        </CharString>
        <CharString name="o">
          -107 callsubr
          endchar
        </CharString>
        <CharString name="oacute">
          -107 callsubr
          -60 492 -94 callgsubr
        </CharString>
        <CharString name="obreve">
          -107 callsubr
          -107 477 -100 callsubr
        </CharString>
        <CharString name="ocircumflex">
          -107 callsubr
          -95 390 -99 callgsubr
        </CharString>
        <CharString name="odieresis">
          -107 callsubr
          -291 387 -106 callsubr
        </CharString>
        <CharString name="oe">
          546 1363 2 callsubr
          -93 -1 -81 -46 -50 -71 rrcurveto
          71 -49 -82 47 -92 hhcurveto
          -204 -96 callsubr
          204 hlineto
          92 82 47 71 49 hvcurveto
          -71 50 81 -47 93 hhcurveto
          327 -85 callsubr
          -676 -100 -5 callgsubr
          103 25 -87 callgsubr
          endchar
        </CharString>
        <CharString name="ogonek">
          -653 54 8 rmoveto
          -40 -21 -14 -45 -27 -82 callgsubr
          23 18 28 29 21 hvcurveto
          endchar
        </CharString>
        <CharString name="ograve">
          -107 callsubr
          -469 406 -67 callgsubr
        </CharString>
        <CharString name="ohungarumlaut">
          -107 callsubr
          -209 470 -58 callgsubr
        </CharString>
        <CharString name="omacron">
          -107 callsubr
          -132 347 -36 callsubr
        </CharString>
        <CharString name="one">
          -530 229 -46 callsubr
          -200 -100 100 -600 100 hlineto
          endchar
        </CharString>
        <CharString name="onehalf">
          -107 440 14 callgsubr
          -353 10 12 callgsubr
          512 -228 -41 callsubr
        </CharString>
        <CharString name="onequarter">
          -81 440 658 -22 callgsubr
          -534 649 12 callgsubr
          endchar
        </CharString>
        <CharString name="onesuperior">
          -590 182 668 12 callgsubr
          endchar
        </CharString>
        <CharString name="ordfeminine">
          -329 455 591 rmoveto
          60 -49 50 -60 vhcurveto
          -241 -74 241 hlineto
          20 16 -15 -21 hvcurveto
          -152 -225 vlineto
          -21 -15 16 20 20 15 16 21 hvcurveto
          191 74 -191 hlineto
          -60 -50 -50 -60 -60 50 -49 60 hvcurveto
          298 hlineto
          -56 vmoveto
          -408 -70 408 hlineto
          endchar
        </CharString>
        <CharString name="ordmasculine">
          -304 495 533 rmoveto
          92 -75 76 -92 vhcurveto
          -118 hlineto
          -92 -75 -76 -92 -92 75 -74 92 -1 hvcurveto
          118 hlineto
          92 1 75 74 92 vvcurveto
          -74 hmoveto
          -52 -40 -42 -53 vhcurveto
          -118 hlineto
          -52 -41 42 52 52 41 41 52 1 hvcurveto
          118 hlineto
          53 -1 40 -41 -52 vvcurveto
          75 -223 rmoveto
          -453 -70 453 hlineto
          endchar
        </CharString>
        <CharString name="oslash">
          -71 callgsubr
          endchar
        </CharString>
        <CharString name="oslashacute">
          -71 callgsubr
          -80 492 -94 callgsubr
        </CharString>
        <CharString name="otilde">
          -107 callsubr
          -116 459 -97 callsubr
        </CharString>
        <CharString name="p">
          11 callgsubr
          -375 -750 -12 callgsubr
        </CharString>
        <CharString name="paragraph">
          88 36 35 callgsubr
          -29 callgsubr
          142 99 -142 hlineto
          -83 -67 68 83 83 67 67 83 hvcurveto
          207 -600 100 600 151 -600 31 callgsubr
          -558 -21 callsubr
          -112 -28 callsubr
          endchar
        </CharString>
        <CharString name="parenleft">
          -517 305 -103 rmoveto
          -2 2 -165 176 288 vvcurveto
          264 166 200 3 3 vhcurveto
          16 20 rlineto
          -126 hlineto
          -55 -80 -104 -181 -226 vvcurveto
          -240 99 -170 57 -78 vhcurveto
          132 hlineto
          endchar
        </CharString>
        <CharString name="parenright">
          -517 -125 vmoveto
          132 hlineto
          57 78 99 170 240 vvcurveto
          226 -104 181 -55 80 vhcurveto
          -126 hlineto
          16 -20 rlineto
          3 -3 166 -200 -264 vvcurveto
          -288 -165 -176 -2 -2 vhcurveto
          endchar
        </CharString>
        <CharString name="partialdiff">
          -18 787 10 callsubr
          55 -16 51 -28 43 vhcurveto
          -192 376 rlineto
          -114 hlineto
          134 -256 rlineto
          4 -19 -19 2 -19 hhcurveto
          -204 -96 callsubr
          204 hlineto
          151 1 122 123 151 vvcurveto
          -100 hmoveto
          -4 callsubr
          endchar
        </CharString>
        <CharString name="percent">
          -20 -63 callsubr
          endchar
        </CharString>
        <CharString name="period">
          -583 205 75 rmoveto
          -92 callgsubr
          endchar
        </CharString>
        <CharString name="periodcentered">
          -567 213 356 rmoveto
          -92 callgsubr
          endchar
        </CharString>
        <CharString name="perthousand">
          349 -63 callsubr
          872 -312 -14 callgsubr
          -83 hmoveto
          -11 callgsubr
          endchar
        </CharString>
        <CharString name="plus">
          -219 587 -1 callsubr
          endchar
        </CharString>
        <CharString name="plusminus">
          -183 605 -1 callsubr
          -300 vmoveto
          -4 callgsubr
        </CharString>
        <CharString name="q">
          35 callsubr
          -37 callsubr
          -375 -64 callsubr
          -650 100 hlineto
          endchar
        </CharString>
        <CharString name="question">
          -45 759 475 16 callgsubr
          -500 -100 500 6 callsubr
          -125 hlineto
          -69 -56 -56 -69 hvcurveto
          -37 100 37 vlineto
          14 11 11 14 vhcurveto
          125 33 callgsubr
          -350 -400 rmoveto
          41 -34 34 -41 -42 -33 -34 -41 -41 33 -34 42 -50 callgsubr
          vhcurveto
          endchar
        </CharString>
        <CharString name="questiondown">
          -45 39 225 rmoveto
          -124 101 -101 124 vhcurveto
          500 100 -500 27 callgsubr
          125 hlineto
          69 56 56 69 hvcurveto
          37 -100 -37 vlineto
          -14 -11 -11 -14 vhcurveto
          -125 32 callsubr
          350 15 callgsubr
          -41 34 -34 41 42 33 34 41 41 -33 34 -42 -70 callgsubr
          vhcurveto
          endchar
        </CharString>
        <CharString name="quotedbl">
          -486 159 701 11 callsubr
          160 246 11 callsubr
          endchar
        </CharString>
        <CharString name="quotedblbase">
          -390 206 -57 callgsubr
          190 hmoveto
          -84 callsubr
          endchar
        </CharString>
        <CharString name="quotedblleft">
          -400 243 576 rmoveto
          -38 callgsubr
          -190 hmoveto
          -38 callgsubr
          endchar
        </CharString>
        <CharString name="quotedblright">
          -402 199 623 rmoveto
          -84 callsubr
          190 hmoveto
          -84 callsubr
          endchar
        </CharString>
        <CharString name="quoteleft">
          -590 53 576 rmoveto
          -38 callgsubr
          endchar
        </CharString>
        <CharString name="quoteright">
          -592 199 623 rmoveto
          -84 callsubr
          endchar
        </CharString>
        <CharString name="quotesinglbase">
          -18 callsubr
        </CharString>
        <CharString name="quotesingle">
          -626 159 701 11 callsubr
          endchar
        </CharString>
        <CharString name="r">
          -54 callgsubr
          endchar
        </CharString>
        <CharString name="racute">
          -54 callgsubr
          -119 317 -94 callgsubr
        </CharString>
        <CharString name="rcaron">
          -54 callgsubr
          -460 259 -85 callgsubr
        </CharString>
        <CharString name="rcommaaccent">
          -54 callgsubr
          -439 -553 -104 callgsubr
        </CharString>
        <CharString name="registered">
          -326 461 547 -13 callsubr
          -94 89 rmoveto
          25 -18 27 -34 vhcurveto
          -161 -203 53 149 107 -21 hlineto
          -13 -8 -8 -14 vhcurveto
          -67 -54 hlineto
          112 -90 rlineto
          -2 -8 -7 0 -2 hhcurveto
          -123 hlineto
          -53 -35 47 54 24 callsubr
          55 33 -48 -54 hvcurveto
          -64 vlineto
          -33 -9 -22 -12 -15 vhcurveto
          -80 62 rlineto
          28 6 32 21 47 vvcurveto
          endchar
        </CharString>
        <CharString name="ring">
          -637 661 vmoveto
          -76 callsubr
        </CharString>
        <CharString name="s">
          -83 callgsubr
          endchar
        </CharString>
        <CharString name="sacute">
          -83 callgsubr
          -142 592 -94 callgsubr
        </CharString>
        <CharString name="scaron">
          -83 callgsubr
          -455 524 -85 callgsubr
        </CharString>
        <CharString name="scedilla">
          -89 callsubr
          267 -72 callgsubr
          103 -64 callgsubr
          endchar
        </CharString>
        <CharString name="scircumflex">
          -83 callgsubr
          -148 490 -99 callgsubr
        </CharString>
        <CharString name="section">
          64 864 100 rmoveto
          36 -10 35 -17 29 vhcurveto
          17 30 10 34 36 vvcurveto
          7 callsubr
          vhcurveto
          -409 -34 callsubr
          559 100 -559 -17 callsubr
          -37 10 -34 17 -29 hvcurveto
          -17 -30 -10 -34 -36 vvcurveto
          22 callgsubr
          409 -25 callgsubr
          -609 -100 609 9 callsubr
          hvcurveto
          -100 200 rmoveto
          -9 -2 -8 -2 -8 vhcurveto
          16 -28 -33 9 -35 hhcurveto
          -409 -3 callsubr
          8 1 9 2 8 hvcurveto
          -16 29 33 -9 35 hhcurveto
          409 hlineto
          12 callsubr
          hvcurveto
          endchar
        </CharString>
        <CharString name="semicolon">
          -564 214 -57 callgsubr
          404 vmoveto
          -92 callgsubr
          endchar
        </CharString>
        <CharString name="seven">
          -102 728 -46 callsubr
          -700 -100 563 hlineto
          -519 -600 rlineto
          137 hlineto
          519 600 rlineto
          endchar
        </CharString>
        <CharString name="six">
          -42 764 225 16 callgsubr
          -325 -100 325 6 callsubr
          -250 hlineto
          -69 -56 56 69 hvcurveto
          250 vlineto
          69 56 56 69 vhcurveto
          425 100 -425 32 callsubr
          -250 vlineto
          -124 101 -101 124 vhcurveto
          250 28 callgsubr
        </CharString>
        <CharString name="slash">
          -307 396 -46 callsubr
          -368 19 callgsubr
        </CharString>
        <CharString name="space">
          -468 endchar
        </CharString>
        <CharString name="sterling">
          -2 808 100 rmoveto
          -569 200 300 100 -300 25 hlineto
          -37 callgsubr
          227 100 -227 3 callgsubr
          -50 -100 -100 100 -300 669 vlineto
          endchar
        </CharString>
        <CharString name="t">
          -221 -31 callsubr
          endchar
        </CharString>
        <CharString name="tbar">
          -221 415 360 rmoveto
          -150 90 -24 callgsubr
          -90 10 callgsubr
          -260 100 260 150 hlineto
          endchar
        </CharString>
        <CharString name="tcaron">
          30 -31 callsubr
          541 -61 callgsubr
        </CharString>
        <CharString name="tcommaaccent">
          -221 -31 callsubr
          9 -113 -104 callgsubr
        </CharString>
        <CharString name="thorn">
          11 callgsubr
          -275 199 -100 -949 -12 callgsubr
        </CharString>
        <CharString name="three">
          -87 699 500 rmoveto
          7 callsubr
          vhcurveto
          -450 -100 450 -25 callgsubr
          -324 -100 324 -25 callgsubr
          -450 -100 450 9 callsubr
          59 -27 54 -42 37 hvcurveto
          42 36 27 54 60 vvcurveto
          endchar
        </CharString>
        <CharString name="threequarters">
          41 337 -27 callsubr
          225 234 -22 callgsubr
          endchar
        </CharString>
        <CharString name="threesuperior">
          -426 356 -27 callsubr
          endchar
        </CharString>
        <CharString name="tilde">
          -565 278 714 -97 callsubr
        </CharString>
        <CharString name="trademark">
          5 617 553 rmoveto
          51 2 39 42 48 hhcurveto
          14 -233 54 287 -68 hlineto
          -47 -42 -25 -37 -26 hvcurveto
          37 -26 -43 25 -48 hhcurveto
          -67 -287 54 233 13 hlineto
          49 40 -40 -49 hvcurveto
          -144 54 vlineto
          -367 233 rmoveto
          136 54 -328 -54 137 -233 55 hlineto
          endchar
        </CharString>
        <CharString name="two">
          -96 695 100 rmoveto
          -551 100 hlineto
          55 46 45 55 vhcurveto
          250 9 callsubr
          7 callsubr
          hvcurveto
          -400 -100 400 -25 callgsubr
          -250 -17 callsubr
          hvcurveto
          -200 650 vlineto
          endchar
        </CharString>
        <CharString name="twosuperior">
          -400 375 415 -41 callsubr
        </CharString>
        <CharString name="u">
          -96 callgsubr
          endchar
        </CharString>
        <CharString name="uacute">
          -96 callgsubr
          -159 -33 callsubr
        </CharString>
        <CharString name="ubreve">
          -96 callgsubr
          -177 752 -100 callsubr
        </CharString>
        <CharString name="ucircumflex">
          -96 callgsubr
          -164 -47 callgsubr
        </CharString>
        <CharString name="udieresis">
          -96 callgsubr
          -360 662 -106 callsubr
        </CharString>
        <CharString name="ugrave">
          -96 callgsubr
          -528 681 -67 callgsubr
        </CharString>
        <CharString name="uhungarumlaut">
          -96 callgsubr
          -299 745 -58 callgsubr
        </CharString>
        <CharString name="umacron">
          -96 callgsubr
          -202 622 -36 callsubr
        </CharString>
        <CharString name="underscore">
          -173 610 -88 rmoveto
          -4 callgsubr
        </CharString>
        <CharString name="uni00AD">
          -165 614 5 callgsubr
        </CharString>
        <CharString name="uni0312">
          -590 68 711 -12 callsubr
        </CharString>
        <CharString name="uni0315">
          -592 184 -61 callgsubr
        </CharString>
        <CharString name="uni0326">
          -580 191 -153 -104 callgsubr
        </CharString>
        <CharString name="uogonek">
          -105 callsubr
          282 -86 callgsubr
          23 hlineto
          endchar
        </CharString>
        <CharString name="uring">
          -96 callgsubr
          -423 681 rmoveto
          -76 callsubr
        </CharString>
        <CharString name="utilde">
          -96 callgsubr
          -181 -63 callgsubr
        </CharString>
        <CharString name="v">
          -96 617 -37 callsubr
          -244 -446 -242 446 rlineto
          -117 hlineto
          302 -550 28 callsubr
          304 550 rlineto
          endchar
        </CharString>
        <CharString name="w">
          -90 callgsubr
          endchar
        </CharString>
        <CharString name="wacute">
          -90 callgsubr
          -246 492 -94 callgsubr
        </CharString>
        <CharString name="wcircumflex">
          -90 callgsubr
          -252 390 -99 callgsubr
        </CharString>
        <CharString name="wdieresis">
          -90 callgsubr
          -448 387 -106 callsubr
        </CharString>
        <CharString name="wgrave">
          -90 callgsubr
          -615 406 -67 callgsubr
        </CharString>
        <CharString name="x">
          -119 150 -37 callsubr
          -143 hlineto
          284 -276 -284 -274 17 callsubr
          210 207 214 -207 17 callsubr
          -143 -37 callsubr
          -167 -168 72 -64 238 232 rlineto
          endchar
        </CharString>
        <CharString name="y">
          -88 callsubr
          endchar
        </CharString>
        <CharString name="yacute">
          -88 callsubr
          -159 792 -94 callgsubr
        </CharString>
        <CharString name="ycircumflex">
          -88 callsubr
          -160 690 -99 callgsubr
        </CharString>
        <CharString name="ydieresis">
          -88 callsubr
          -360 687 -106 callsubr
        </CharString>
        <CharString name="yen">
          32 842 -50 callsubr
          -200 hlineto
          -83 -68 -67 -82 vhcurveto
          -309 -62 callsubr
          104 -50 -152 -100 152 -100 100 100 148 100 -148 50 105 hlineto
          -30 callsubr
          138 hvcurveto
          endchar
        </CharString>
        <CharString name="ygrave">
          -88 callsubr
          -523 706 -67 callgsubr
        </CharString>
        <CharString name="z">
          -55 callgsubr
          endchar
        </CharString>
        <CharString name="zacute">
          -55 callgsubr
          -160 317 -94 callgsubr
        </CharString>
        <CharString name="zcaron">
          -55 callgsubr
          -480 259 -85 callgsubr
        </CharString>
        <CharString name="zdotaccent">
          -55 callgsubr
          -280 212 -80 callgsubr
        </CharString>
        <CharString name="zero">
          58 854 0 callgsubr
          -163 -98 callsubr
          163 30 callsubr
          hvcurveto
          -100 hmoveto
          -138 -84 -52 callgsubr
          -163 -21 callsubr
          -84 -71 callsubr
          -69 callsubr
          hvcurveto
          163 hlineto
          138 84 -28 callsubr
          endchar
        </CharString>
      <CharString index="0">
        920 350 rmoveto
        -94 callsubr
        193 128 -47 callsubr
        -100 hmoveto
        25 callsubr
        -138 -84 -71 callsubr
        -69 callsubr
        hvcurveto
        19 callsubr
        138 83 -28 callsubr
        return
      </CharString>
      <CharString index="1">
        51 833 700 rmoveto
        -100 -98 callgsubr
        74 9 callgsubr
        156 -47 callsubr
        1 350 rlineto
        return
      </CharString>
      <CharString index="2">
        rmoveto
        35 -27 28 -33 -33 -27 -28 -32 -31 22 -25 29 -4 vhcurveto
        -6 -26 -10 -16 0 vvcurveto
        51 -1 rlineto
        0 32 48 2 52 vhcurveto
        return
      </CharString>
      <CharString index="3">
        -105 callgsubr
        endchar
      </CharString>
      <CharString index="4">
        -85 callsubr
        -573 -75 -87 callgsubr
        return
      </CharString>
      <CharString index="5">
        -104 callsubr
        500 hlineto
        return
      </CharString>
      <CharString index="6">
        hlineto
        -193 -156 -157 -193 -2 callsubr
        350 vlineto
        -30 callsubr
        137 vhcurveto
        359 -300 -559 -100 559 -200 return
      </CharString>
      <CharString index="7">
        880 -46 callsubr
        -459 -101 callgsubr
        return
      </CharString>
      <CharString index="8">
        rmoveto
        -165 103 -155 -103 33 -50 122 64 122 -64 rlineto
        endchar
      </CharString>
      <CharString index="9">
        -350 -21 callsubr
        -111 -52 callgsubr
        -74 hlineto
        -137 -112 -23 callgsubr
        350 20 callgsubr
        vlineto
        -193 156 -157 193 vhcurveto
        return
      </CharString>
      <CharString index="10">
        -100 callgsubr
        100 hlineto
        return
      </CharString>
      <CharString index="11">
        -105 callsubr
        13 callsubr
        return
      </CharString>
      <CharString index="12">
        220 986 -50 callsubr
        -448 hlineto
        -84 -68 -68 -84 -84 -68 68 84 vhcurveto
        448 -101 -448 vlineto
        -7 vlineto
        -81 -4 -66 -64 -82 hhcurveto
        -84 -68 68 84 hvcurveto
        448 -100 -448 vlineto
        -139 113 -113 139 83 73 39 61 46 vhcurveto
        -61 46 74 -39 83 hhcurveto
        139 113 113 139 hvcurveto
        return
      </CharString>
      <CharString index="13">
        rmoveto
        -169 -99 24 -53 183 66 rlineto
        endchar
      </CharString>
      <CharString index="14">
        -92 callsubr
        -123 151 -1 vhcurveto
        return
      </CharString>
      <CharString index="15">
        41 -34 34 -41 -70 callgsubr
        -41 22 callsubr
        vhcurveto
        return
      </CharString>
      <CharString index="16">
        47 857 200 rmoveto
        110 -89 90 -111 vhcurveto
        -408 -34 callsubr
        558 100 -558 -17 callsubr
        -111 90 -89 110 hvcurveto
        408 hlineto
        56 44 -45 -55 -55 -44 -45 -56 hvcurveto
        -608 -100 return
      </CharString>
      <CharString index="17">
        106 886 -46 callgsubr
        -275 hlineto
        -2 callgsubr
        vhcurveto
        -89 450 -99 -450 -89 -102 callsubr
        277 -34 callgsubr
        return
      </CharString>
      <CharString index="18">
        101 866 7 callgsubr
        -459 -62 callsubr
        459 -50 hlineto
        -55 -68 -45 -82 vhcurveto
        -559 -100 559 hlineto
        -27 callgsubr
        89 111 hvcurveto
        return
      </CharString>
      <CharString index="19">
        -168 637 100 rmoveto
        -327 -80 callsubr
        327 100 -327 -96 callsubr
        return
      </CharString>
      <CharString index="20">
        rmoveto
        84 12 71 66 88 hhcurveto
        227 -77 callsubr
        return
      </CharString>
      <CharString index="21">
        -84 callgsubr
        20 13 25 23 19 hvcurveto
        return
      </CharString>
      <CharString index="22">
        rmoveto
        -86 callsubr
      </CharString>
      <CharString index="23">
        hlineto
        -30 -23 -11 -38 -24 -82 callgsubr
        return
      </CharString>
      <CharString index="24">
        -89 callsubr
        425 -64 callgsubr
        return
      </CharString>
      <CharString index="25">
        vvcurveto
        -49 41 -17 50 53 28 11 5 18 vhcurveto
        65 vlineto
        -7 -18 -36 -11 -23 hhcurveto
        -27 -11 7 17 return
      </CharString>
      <CharString index="26">
        hlineto
        -194 -128 -157 -193 return
      </CharString>
      <CharString index="27">
        rmoveto
        24 -21 21 -24 -76 callgsubr
        24 21 20 25 vhcurveto
        endchar
      </CharString>
      <CharString index="28">
        hlineto
        -96 1 -77 78 96 vvcurveto
        return
      </CharString>
      <CharString index="29">
        rmoveto
        275 -70 callsubr
        -375 4 callgsubr
        return
      </CharString>
      <CharString index="30">
        -67 callsubr
        -100 hmoveto
        -29 callsubr
        return
      </CharString>
      <CharString index="31">
        -25 -20 -21 -24 -25 20 -20 25 return
      </CharString>
      <CharString index="32">
        -151 122 -124 151 vhcurveto
        return
      </CharString>
      <CharString index="33">
        -60 172 450 -78 callgsubr
        return
      </CharString>
      <CharString index="34">
        375 -65 callsubr
        return
      </CharString>
      <CharString index="35">
        hlineto
        -27 -73 -78 callsubr
        9 24 rlineto
        return
      </CharString>
      <CharString index="36">
        -59 608 551 rmoveto
        -24 -24 rlineto
        15 -34 -37 8 -39 hhcurveto
        -164 -74 callsubr
        -81 34 -72 56 -51 hvcurveto
        -72 -71 rlineto
        129 hlineto
        21 21 rlineto
        -13 32 36 -8 37 hhcurveto
        164 -67 callsubr
        78 -33 71 -53 51 vhcurveto
        76 76 rlineto
        -263 -101 rmoveto
        10 10 -2 -1 9 hvcurveto
        -306 -305 rlineto
        -37 32 -23 48 53 vvcurveto
        -37 callgsubr
        337 -175 rmoveto
        -29 callsubr
        -164 hlineto
        -8 -8 1 1 -8 hvcurveto
        304 302 rlineto
        35 -32 22 -46 -51 vvcurveto
        return
      </CharString>
      <CharString index="37">
        -41 -34 -34 -41 return
      </CharString>
      <CharString index="38">
        10 callsubr
        -75 callsubr
        return
      </CharString>
      <CharString index="39">
        456 1273 2 callsubr
        -78 -1 -70 -33 -49 -52 rrcurveto
        52 -31 -56 34 -64 hhcurveto
        -26 callgsubr
        63 hlineto
        -39 47 60 -24 66 hhcurveto
        327 -103 callgsubr
        return
      </CharString>
      <CharString index="40">
        rmoveto
        -65 callgsubr
      </CharString>
      <CharString index="41">
        -17 callgsubr
        -558 -7 callsubr
        -44 callsubr
        return
      </CharString>
      <CharString index="42">
        183 -66 24 53 -169 99 rlineto
        endchar
      </CharString>
      <CharString index="43">
        hlineto
        97 78 78 97 hvcurveto
        return
      </CharString>
      <CharString index="44">
        734 -97 callsubr
      </CharString>
      <CharString index="45">
        hlineto
        -85 400 -43 callgsubr
        return
      </CharString>
      <CharString index="46">
        748 -104 callgsubr
      </CharString>
      <CharString index="47">
        -112 -138 return
      </CharString>
      <CharString index="48">
        175 -65 callsubr
        -275 hlineto
        -28 -22 22 28 28 22 22 28 hvcurveto
        return
      </CharString>
      <CharString index="49">
        rmoveto
        -113 -101 20 16 callsubr
        111 68 rmoveto
        -111 -101 18 16 callsubr
        endchar
      </CharString>
      <CharString index="50">
        72 rmoveto
        -84 callsubr
        return
      </CharString>
      <CharString index="51">
        -100 -385 hlineto
        228 -148 -281 157 -195 hhcurveto
        -50 -700 100 return
      </CharString>
      <CharString index="52">
        -109 692 -37 callsubr
        -650 -100 481 hlineto
        -481 -350 rlineto
        -100 650 100 -482 vlineto
        482 350 rlineto
        return
      </CharString>
      <CharString index="53">
        -216 618 -37 callsubr
        -375 hlineto
        -97 -78 -78 -97 hvcurveto
        -375 100 375 vlineto
        -50 callgsubr
        vhcurveto
        13 callsubr
        return
      </CharString>
      <CharString index="54">
        -400 -100 400 hlineto
        return
      </CharString>
      <CharString index="55">
        -60 callgsubr
        vhcurveto
        return
      </CharString>
      <CharString index="56">
        -575 -44 callgsubr
        return
      </CharString>
      <CharString index="57">
        41 34 34 41 return
      </CharString>
      <CharString index="58">
        -45 callsubr
        4 callgsubr
        return
      </CharString>
      <CharString index="59">
        155 549 15 callgsubr
        -320 200 -60 callsubr
        32 callgsubr
        hvcurveto
        -503 -300 -130 -100 130 -300 100 300 320 hlineto
        endchar
      </CharString>
      <CharString index="60">
        665 -99 callgsubr
      </CharString>
      <CharString index="61">
        -37 callsubr
        -100 return
      </CharString>
      <CharString index="62">
        -46 callsubr
        -765 -100 665 -250 -21 callsubr
        -112 -52 callgsubr
        -24 callsubr
        return
      </CharString>
      <CharString index="63">
        184 -30 callgsubr
        return
      </CharString>
      <CharString index="64">
        rmoveto
        -33 callgsubr
        hlineto
        return
      </CharString>
      <CharString index="65">
        248 -222 -246 -216 rlineto
        132 hlineto
        203 178 -16 callsubr
        -207 185 rlineto
        return
      </CharString>
      <CharString index="66">
        156 194 return
      </CharString>
      <CharString index="67">
        753 100 rmoveto
        -569 600 -100 -700 hlineto
        0 669 vlineto
        return
      </CharString>
      <CharString index="68">
        rmoveto
        -23 callsubr
        -24 -25 return
      </CharString>
      <CharString index="69">
        -44 22 callsubr
        37 -29 32 -36 5 vhcurveto
        9 33 12 20 0 vvcurveto
        -64 1 rlineto
        0 -41 -60 -1 -65 vhcurveto
        return
      </CharString>
      <CharString index="70">
        -61 callsubr
        vhcurveto
        return
      </CharString>
      <CharString index="71">
        685 34 callsubr
        15 callsubr
        -56 callsubr
        hlineto
        return
      </CharString>
      <CharString index="72">
        -45 callsubr
        -575 hlineto
        -40 callsubr
        return
      </CharString>
      <CharString index="73">
        hlineto
        151 122 124 151 hvcurveto
        return
      </CharString>
      <CharString index="74">
        -489 -100 489 return
      </CharString>
      <CharString index="75">
        907 -94 callgsubr
      </CharString>
      <CharString index="76">
        350 100 -350 return
      </CharString>
      <CharString index="77">
        -50 callsubr
        -700 return
      </CharString>
      <CharString index="78">
        -138 18 callgsubr
        138 vhcurveto
        return
      </CharString>
      <CharString index="79">
        41 -50 callgsubr
        return
      </CharString>
      <CharString index="80">
        138 112 return
      </CharString>
      <CharString index="81">
        -103 callsubr
        500 return
      </CharString>
      <CharString index="82">
        hlineto
        -35 callsubr
        return
      </CharString>
      <CharString index="83">
        -31 callgsubr
        -15 callgsubr
        10 callgsubr
        return
      </CharString>
      <CharString index="84">
        -71 callsubr
        hvcurveto
        return
      </CharString>
      <CharString index="85">
        -39 callsubr
        181 -302 rmoveto
        -83 -127 -145 127 -83 -168 hlineto
        -23 19 -19 23 vhcurveto
        186 -127 83 hlineto
        return
      </CharString>
      <CharString index="86">
        hlineto
        -151 return
      </CharString>
      <CharString index="87">
        -60 -19 callgsubr
        -275 200 -100 -750 -10 callsubr
        return
      </CharString>
      <CharString index="88">
        720 -69 callgsubr
        return
      </CharString>
      <CharString index="89">
        100 4 callsubr
        return
      </CharString>
      <CharString index="90">
        138 23 callgsubr
        -138 vhcurveto
        return
      </CharString>
      <CharString index="91">
        rlineto
        -11 -10 -6 -14 -14 vvcurveto
        -14 6 -14 11 -9 vhcurveto
        return
      </CharString>
      <CharString index="92">
        200 15 callsubr
        return
      </CharString>
      <CharString index="93">
        rmoveto
        91 -74 75 -92 -92 -75 -75 -91 -9 callgsubr
        return
      </CharString>
      <CharString index="94">
        622 34 callsubr
        -277 hlineto
        -26 callsubr
        277 hlineto
        return
      </CharString>
      <CharString index="95">
        100 650 275 hlineto
        96 77 -79 -96 -2 callgsubr
        hvcurveto
        -6 callgsubr
        21 callsubr
      </CharString>
      <CharString index="96">
        -46 -37 -38 -46 -46 -38 38 46 45 38 38 46 46 37 -38 -45 vhcurveto
        return
      </CharString>
      <CharString index="97">
        197 2 callgsubr
        -25 -125 rmoveto
        -100 4 callgsubr
        return
      </CharString>
      <CharString index="98">
        -92 75 -75 92 92 74 75 92 vhcurveto
        return
      </CharString>
      <CharString index="99">
        157 -193 return
      </CharString>
      <CharString index="100">
        35 -25 57 -67 vhcurveto
        -194 -84 194 hlineto
        return
      </CharString>
      <CharString index="101">
        -225 -100 225 return
      </CharString>
      <CharString index="102">
        rmoveto
        -4 callsubr
        return
      </CharString>
      <CharString index="103">
        -9 callsubr
        endchar
      </CharString>
      <CharString index="104">
        hlineto
        111 89 89 111 hvcurveto
        return
      </CharString>
      <CharString index="105">
        -96 -77 -78 -96 -1 return
      </CharString>
      <CharString index="106">
        194 hvcurveto
        return
      </CharString>
      <CharString index="107">
        350 rmoveto
        32 callgsubr
        vhcurveto
        return
      </CharString>
      <CharString index="108">
        vhcurveto
        -53 callgsubr
        return
      </CharString>
      <CharString index="109">
        675 rmoveto
        -92 callgsubr
        return
      </CharString>
      <CharString index="110">
        hlineto
        -25 callsubr
        return
      </CharString>
      <CharString index="111">
        -550 100 hlineto
        return
      </CharString>
      <CharString index="112">
        15 callgsubr
        -4 callgsubr
      </CharString>
      <CharString index="113">
        rlineto
        310 -100 -341 vlineto
        -130 -39 rlineto
        -110 vlineto
        130 39 rlineto
        return
      </CharString>
      <CharString index="114">
        -50 callsubr
        -350 return
      </CharString>
      <CharString index="115" raw="1">
        1ff72e06 0b  
      </CharString>
      <CharString index="116">
        hlineto
        193 return
      </CharString>
      <CharString index="117">
        -150 -100 150 return
      </CharString>
      <CharString index="118">
        27 callsubr
        123 -151 1 vhcurveto
        return
      </CharString>
      <CharString index="119">
        rmoveto
        -134 -84 51 -253 83 hlineto
        return
      </CharString>
      <CharString index="120">
        350 rmoveto
        return
      </CharString>
      <CharString index="121">
        658 -39 callsubr
        return
      </CharString>
      <CharString index="122">
        400 rmoveto
        return
      </CharString>
      <CharString index="123">
        rmoveto
        124 -101 101 -124 vhcurveto
        return
      </CharString>
      <CharString index="124">
        -41 -34 34 41 return
      </CharString>
      <CharString index="125">
        112 -112 return
      </CharString>
      <CharString index="126">
        -700 28 callsubr
        368 700 rlineto
        endchar
      </CharString>
      <CharString index="127">
        -100 -350 return
      </CharString>
      <CharString index="128">
        hhcurveto
        26 callgsubr
        return
      </CharString>
      <CharString index="129">
        -110 90 -90 110 vhcurveto
        return
      </CharString>
      <CharString index="130">
        -112 112 return
      </CharString>
      <CharString index="131">
        hlineto
        -40 -183 rlineto
        99 hlineto
        40 183 rlineto
        return
      </CharString>
      <CharString index="132">
        hlineto
        40 181 rlineto
        -99 hlineto
        -40 -181 rlineto
        return
      </CharString>
      <CharString index="133">
        -233 -81 callgsubr
        return
      </CharString>
      <CharString index="134">
        hlineto
        -69 -56 56 69 69 56 56 69 hvcurveto
        return
      </CharString>
      <CharString index="135">
        33 callgsubr
        endchar
      </CharString>
      <CharString index="136">
        720 10 callsubr
        151 -122 return
      </CharString>
      <CharString index="137">
        -44 callgsubr
        100 return
      </CharString>
      <CharString index="138">
        100 700 return
      </CharString>
      <CharString index="139">
        193 -129 -8 callgsubr
        return
      </CharString>
      <CharString index="140">
        hlineto
        124 101 101 124 hvcurveto
        return
      </CharString>
      <CharString index="141">
        rlineto
        131 hlineto
        return
      </CharString>
      <CharString index="142">
        450 rmoveto
        return
      </CharString>
</ttFont>
